<svg xmlns="http://www.w3.org/2000/svg" xmlns:xlink="http://www.w3.org/1999/xlink" version="1.1" x="0px" y="0px" viewBox="0 0 32 32" style="enable-background:new 0 0 32 32;" xml:space="preserve"><g><path d="M27.497,8H22c-0.553,0-1-0.448-1-1s0.447-1,1-1h5V1c0-0.552,0.447-1,1-1s1,0.448,1,1v5.497C29,7.326,28.326,8,27.497,8z"></path><path d="M16,32C7.178,32,0,24.822,0,16S7.178,0,16,0c4.274,0,8.293,1.665,11.313,4.687c0.391,0.391,0.391,1.024,0,1.414   c-0.391,0.391-1.023,0.391-1.414,0C23.256,3.456,19.74,2,16,2C8.28,2,2,8.28,2,16s6.28,14,14,14s14-6.28,14-14c0-0.552,0.447-1,1-1   s1,0.448,1,1C32,24.822,24.822,32,16,32z"></path></g></svg>