<svg xmlns="http://www.w3.org/2000/svg" viewBox="0 0 100 100"><path style="text-indent:0;text-transform:none;block-progression:tb" d="M45.98 9C23.384 9 5 27.392 5 50s18.383 41 40.98 41a2.999 3 0 1 0 0-6c-19.356 0-34.983-15.634-34.983-35s15.627-35 34.984-35c19.356 0 34.983 15.634 34.983 35a34.882 34.882 0 0 1-7.996 22.281V57a2.999 3 0 0 0-3.03-3.062A2.999 3 0 0 0 66.97 57v22a2.999 3 0 0 0 2.998 3h21.99a2.999 3 0 1 0 0-6H77.653a40.835 40.835 0 0 0 9.308-26c0-22.608-18.383-41-40.98-41z" overflow="visible" color="#000"/></svg>